<svg xmlns="http://www.w3.org/2000/svg" viewBox="0 0 400 400"><g><circle cx="200" cy="200" r="200" fill="#FF3E00"/><path d="M272.1 127.6c-13.2-22.8-41.7-30.6-64.5-17.4l-70.2 40.5c-22.8 13.2-30.6 41.7-17.4 64.5l40.5 70.2c13.2 22.8 41.7 30.6 64.5 17.4l70.2-40.5c22.8-13.2 30.6-41.7 17.4-64.5l-40.5-70.2z" fill="#fff"/><path d="M272.1 127.6c-13.2-22.8-41.7-30.6-64.5-17.4l-70.2 40.5c-22.8 13.2-30.6 41.7-17.4 64.5l40.5 70.2c13.2 22.8 41.7 30.6 64.5 17.4l70.2-40.5c22.8-13.2 30.6-41.7 17.4-64.5l-40.5-70.2z" fill="#fff" opacity=".2"/></g></svg>